<?xml version="1.0" standalone="no"?>
<!DOCTYPE svg PUBLIC "-//W3C//DTD SVG 20010904//EN"
 "http://www.w3.org/TR/2001/REC-SVG-20010904/DTD/svg10.dtd">
<svg version="1.0" xmlns="http://www.w3.org/2000/svg"
 width="1282.000000pt" height="325.000000pt" viewBox="0 0 1282.000000 325.000000"
 preserveAspectRatio="xMidYMid meet">
<metadata>
Created by potrace 1.16, written by Peter Selinger 2001-2019
</metadata>
<g transform="translate(0.000000,325.000000) scale(0.100000,-0.100000)"
fill="#000000" stroke="none">
<path d="M5308 3214 c18 -8 37 -12 42 -9 4 3 7 -2 6 -10 -3 -19 -16 -32 -16
-16 0 7 -5 9 -10 6 -6 -4 -3 -16 10 -32 11 -14 20 -32 20 -39 0 -8 11 -14 25
-14 27 0 35 -21 44 -113 1 -5 5 -6 10 -3 5 4 11 1 13 -6 3 -7 11 -9 24 -3 10
4 23 7 28 6 4 -1 14 3 21 9 9 8 14 6 18 -4 4 -9 2 -18 -3 -21 -6 -4 -10 -14
-10 -24 0 -13 10 -20 38 -25 55 -9 74 -7 67 5 -4 6 -14 8 -22 5 -8 -4 -11 -1
-8 5 4 6 -1 16 -11 23 -16 12 -16 15 -3 28 15 16 68 33 84 28 6 -1 22 -2 37
-1 20 1 29 -5 37 -26 10 -28 10 -28 9 -3 -2 33 21 100 34 100 6 0 9 -3 5 -6
-3 -3 3 -21 14 -40 24 -43 24 -44 -1 -44 -14 0 -20 -7 -20 -22 1 -17 13 -28
45 -44 50 -23 60 -21 44 9 -8 14 -8 18 0 13 6 -4 11 -1 11 8 0 21 -19 30 -26
12 -3 -9 -17 -16 -30 -16 -27 0 -32 17 -9 27 9 3 22 18 31 34 16 31 34 38 34
14 0 -8 5 -15 10 -15 6 0 10 7 10 15 0 10 7 14 23 11 12 -3 30 -5 40 -5 9 -1
17 -9 17 -18 0 -13 -3 -14 -12 -5 -17 17 -39 15 -53 -5 -11 -14 -10 -19 4 -29
14 -11 14 -14 -8 -21 -22 -9 -22 -10 -7 -26 10 -9 15 -21 12 -26 -4 -5 7 -16
24 -24 28 -15 30 -14 30 4 0 12 -7 19 -20 19 -11 0 -20 5 -20 10 0 6 7 10 15
10 7 0 18 6 22 13 4 8 16 16 25 20 10 4 15 12 12 21 -3 8 -1 17 5 21 6 3 14
-2 18 -12 4 -10 10 -20 14 -23 5 -3 9 -20 11 -38 3 -38 18 -44 18 -7 0 14 4
25 9 25 5 0 9 11 9 25 0 24 -8 29 -37 26 -7 -2 -11 4 -8 11 2 7 9 12 15 11 6
-1 14 11 17 29 5 22 9 27 16 17 7 -11 9 -9 9 8 0 14 5 20 17 19 24 -4 42 16
49 53 4 17 13 31 21 31 18 0 29 -30 15 -39 -6 -4 -9 -16 -6 -28 4 -15 16 -22
41 -25 37 -4 41 -1 45 47 2 23 -1 30 -14 29 -19 -2 -25 12 -8 18 7 2 6 13 -2
30 l-13 28 -490 -1 c-436 -1 -486 -2 -457 -15z"/>
<path d="M6310 3224 c0 -17 24 -45 35 -40 7 2 16 -2 19 -10 3 -8 -1 -14 -9
-14 -8 0 -15 -6 -15 -14 0 -19 23 -33 28 -18 2 7 13 1 27 -14 18 -20 21 -31
16 -57 -4 -17 -4 -43 0 -57 7 -25 13 -11 10 23 -1 9 3 17 8 17 14 0 14 27 1
32 -5 2 -6 9 -1 17 6 10 14 2 27 -28 10 -23 22 -37 26 -33 5 5 -1 26 -13 46
-18 32 -20 43 -12 71 9 27 8 35 -4 39 -8 4 -19 4 -24 0 -5 -3 -9 0 -9 5 0 6 5
11 11 11 5 0 7 5 4 10 -3 6 1 10 9 10 8 0 17 -4 20 -9 7 -10 31 -9 42 2 12 11
54 8 54 -4 0 -6 -9 -9 -20 -6 -22 6 -35 -7 -25 -23 5 -8 11 -7 20 0 20 17 32
5 37 -34 2 -19 0 -32 -4 -30 -12 8 -9 -9 6 -29 8 -10 12 -27 9 -37 -6 -24 12
-27 21 -4 9 23 7 36 -4 29 -13 -8 -13 3 3 56 8 24 12 51 10 59 -4 13 -3 13 6
0 6 -8 11 -28 11 -45 0 -16 4 -25 8 -19 8 14 94 44 104 38 13 -8 -4 -34 -22
-34 -11 0 -22 -4 -25 -10 -3 -5 -20 -10 -36 -10 -27 0 -29 -2 -23 -27 8 -29 8
-31 1 -76 -3 -18 1 -31 9 -34 7 -3 16 -13 19 -24 10 -29 28 -23 22 7 -3 20 0
28 14 31 23 6 25 29 4 41 -14 7 -13 11 4 26 27 24 43 12 36 -27 -7 -39 1 -52
39 -61 26 -6 28 -5 17 8 -11 13 -11 16 3 16 9 0 16 -7 16 -15 0 -8 4 -15 9
-15 5 0 16 -3 25 -6 10 -4 16 -1 16 9 0 8 6 18 13 20 10 4 10 6 0 6 -8 1 -13
15 -13 39 0 20 4 32 8 27 10 -15 41 -12 52 5 7 12 11 10 19 -10 8 -20 10 -21
10 -6 1 10 9 26 20 35 22 19 18 81 -5 81 -19 0 -18 16 1 24 8 3 21 -1 29 -9
17 -17 26 -9 26 24 0 19 3 22 12 13 16 -16 18 -53 3 -77 -7 -11 -15 -47 -18
-80 -4 -39 -3 -49 2 -30 l9 30 1 -29 c1 -28 37 -116 47 -116 3 0 2 5 -1 10 -3
6 -1 10 4 10 6 0 11 -4 11 -10 0 -5 9 -1 20 10 11 11 17 26 14 35 -8 19 13 45
35 45 9 0 24 12 34 28 17 24 18 25 14 4 -3 -12 -1 -20 4 -16 5 3 9 14 9 24 0
10 5 22 11 25 6 5 4 12 -8 20 -10 7 -21 11 -26 8 -5 -3 -25 -2 -45 2 -35 6
-36 8 -17 21 10 8 29 14 42 14 13 0 23 4 23 8 0 16 -47 34 -69 27 -18 -5 -21
-2 -21 19 0 25 3 26 53 26 42 0 56 -5 75 -25 27 -28 27 -71 -1 -69 -18 2 -23
-11 -9 -20 5 -3 19 4 32 16 20 19 23 20 32 5 12 -22 38 -22 38 1 0 12 5 9 19
-12 18 -27 19 -27 26 -7 7 24 -2 44 -16 36 -5 -4 -9 0 -9 8 0 8 -7 20 -15 27
-19 16 -3 40 23 35 9 -2 21 -4 25 -4 5 -1 6 -5 2 -10 -3 -5 3 -17 12 -27 13
-12 14 -19 5 -22 -16 -5 -16 -32 1 -32 29 0 57 13 57 26 0 8 -4 14 -10 14 -5
0 -10 5 -10 10 0 23 21 8 26 -18 5 -24 10 -28 31 -24 18 3 25 0 30 -17 6 -24
23 -29 23 -6 0 8 7 15 15 15 26 0 16 26 -11 28 -36 3 -44 10 -44 37 0 19 7 27
33 34 21 6 -190 10 -605 10 -351 1 -638 -2 -638 -5z"/>
<path d="M6260 2999 c-9 -15 -15 -18 -24 -9 -10 8 -15 5 -19 -12 -6 -23 15
-47 43 -48 36 -1 -22 -21 -82 -27 -54 -5 -61 -4 -51 8 8 10 9 20 3 29 -6 8
-10 12 -11 8 -1 -5 -3 -12 -4 -18 -1 -5 -3 -16 -4 -24 -1 -16 -83 -41 -106
-32 -9 3 -14 2 -11 -3 3 -5 -20 -19 -52 -32 -61 -24 -229 -122 -302 -176 -95
-71 -193 -179 -282 -313 -50 -74 -95 -148 -101 -165 -5 -16 -13 -34 -17 -40
-12 -16 -47 -125 -59 -180 -44 -212 -41 -442 8 -627 17 -65 35 -125 40 -135
165 -300 289 -447 486 -578 136 -89 154 -99 263 -135 48 -16 101 -33 117 -39
17 -6 69 -15 118 -22 48 -6 87 -15 87 -20 0 -10 -3 -10 -73 -11 -35 0 -50 -5
-55 -17 -5 -13 -7 -11 -12 9 -4 19 -13 26 -35 28 -17 2 -34 9 -38 15 -5 7 -7
1 -4 -15 5 -36 -19 -38 -35 -3 -7 15 -27 29 -56 40 -25 8 -46 15 -47 15 -1 0
-1 -25 0 -56 0 -45 5 -60 22 -74 21 -17 21 -17 -21 -27 -29 -6 -50 -6 -70 2
-23 10 -25 13 -11 18 9 4 26 7 36 7 16 0 19 4 13 22 -3 12 -13 28 -20 36 -18
17 -18 28 0 35 7 3 15 17 18 30 4 19 -1 28 -19 36 -34 15 -36 14 -31 -14 3
-14 1 -25 -3 -25 -5 0 -9 8 -9 18 0 10 -5 23 -12 30 -9 9 -9 12 2 13 8 0 -7
11 -35 25 l-50 24 -3 -25 c-2 -14 -8 -25 -13 -25 -5 0 -6 -12 -3 -27 7 -26 6
-27 -12 -13 -57 45 -86 50 -108 18 -11 -16 -12 -26 -5 -40 8 -15 7 -23 -8 -33
-16 -12 -20 -11 -33 11 -19 31 -27 30 -35 -5 -8 -36 -35 -49 -42 -21 -6 23
-38 27 -47 5 -3 -8 -12 -15 -21 -15 -8 0 -15 -9 -15 -20 0 -11 -4 -20 -10 -20
-5 0 -10 6 -10 14 0 8 -13 24 -29 35 -31 22 -42 26 -40 13 3 -18 -2 -32 -11
-32 -5 0 -10 9 -10 20 0 14 -9 21 -34 26 -22 4 -33 11 -30 19 3 7 -2 15 -10
18 -12 5 -16 0 -16 -21 0 -25 -3 -27 -42 -26 -23 1 -44 6 -46 13 -9 28 -17 6
-17 -52 -1 -50 -6 -70 -29 -105 -24 -38 -29 -42 -44 -30 -30 23 -30 30 -5 54
21 20 23 25 10 30 -18 7 -40 -3 -32 -15 8 -14 -91 -89 -102 -77 -4 3 6 15 20
27 15 11 27 26 27 32 0 7 -4 6 -10 -3 -8 -12 -10 -12 -16 3 -4 12 -15 16 -33
15 -20 -2 -25 1 -23 15 2 14 -2 18 -19 15 -12 -2 -24 -9 -27 -16 -2 -7 2 -10
12 -6 10 4 16 1 16 -9 0 -8 5 -17 12 -19 8 -3 9 -11 3 -24 -12 -27 -12 -38 0
-47 6 -5 4 -7 -5 -5 -8 1 -27 -6 -43 -16 -21 -14 -30 -16 -41 -7 -9 8 -22 8
-39 2 -16 -6 -28 -6 -35 1 -7 7 -17 3 -31 -11 -26 -26 -27 -49 -1 -53 18 -3
17 -5 -9 -19 -38 -22 -56 -11 -40 24 7 15 17 27 23 27 6 0 3 5 -7 11 -9 5 -22
7 -27 4 -6 -3 -10 1 -10 10 0 12 -6 15 -20 10 -16 -5 -20 -2 -20 14 0 24 -18
28 -26 6 -4 -8 -10 -15 -15 -15 -5 0 -9 7 -9 15 0 8 -7 15 -16 15 -12 0 -14
-5 -9 -17 4 -10 10 -29 13 -41 3 -18 7 -20 13 -10 7 10 9 9 9 -4 0 -21 -1 -21
-34 -8 -22 8 -24 13 -19 45 6 36 -1 42 -27 25 -10 -6 -11 -10 -2 -10 8 0 12
-15 12 -42 l0 -42 -17 24 c-10 14 -18 36 -18 50 -1 15 -7 26 -18 28 -20 4 -22
-16 -3 -41 17 -22 10 -58 -10 -50 -8 3 -14 -1 -14 -10 0 -17 -27 -30 -42 -21
-5 3 -7 12 -4 20 3 9 -2 14 -14 14 -24 0 -25 -8 -6 -29 8 -9 17 -31 21 -49 6
-30 5 -33 -12 -30 -13 2 -17 11 -15 31 6 48 -49 23 -60 -28 -2 -11 -8 4 -12
33 -9 59 -4 71 19 52 12 -10 15 -10 15 5 0 9 -9 19 -20 22 -25 7 -26 19 -2 28
16 6 16 7 0 19 -26 19 -22 29 9 23 28 -5 44 6 56 36 4 11 3 16 -4 12 -5 -4
-16 -1 -24 5 -12 10 -19 10 -32 -1 -16 -12 -17 -12 -6 1 14 18 6 33 -20 43
-43 16 -88 -19 -67 -53 5 -9 12 -6 22 9 14 19 17 20 28 6 15 -18 14 -19 -25
-32 -18 -6 -28 -16 -26 -24 2 -8 3 -25 2 -38 0 -13 4 -30 10 -38 19 -22 1 -28
-22 -7 -12 10 -29 18 -39 16 -9 -1 -23 4 -30 13 -11 13 -9 15 15 15 23 0 26 2
15 15 -7 8 -16 12 -21 9 -5 -3 -9 0 -9 5 0 6 -4 11 -10 11 -5 0 -10 -12 -10
-27 0 -14 -7 -35 -16 -45 -14 -14 -14 -20 -4 -33 17 -20 31 -19 23 3 -6 15 -5
15 10 4 9 -8 21 -11 27 -7 7 4 14 -2 17 -14 6 -23 41 -29 49 -8 4 12 34 20 34
10 0 -15 -42 -42 -74 -49 -32 -5 -42 -3 -54 12 -14 18 -14 18 -8 1 3 -10 1
-27 -4 -38 -10 -19 -5 -19 226 -19 l236 0 -6 25 c-4 15 -2 25 4 25 6 0 8 5 5
11 -5 7 -15 3 -29 -10 -12 -12 -27 -21 -33 -21 -6 0 -13 -6 -16 -12 -2 -7 -7
-11 -10 -8 -3 3 6 25 21 48 27 43 28 43 75 39 35 -3 50 0 56 11 7 12 9 12 15
-3 8 -22 -2 -38 -20 -31 -22 8 -29 -16 -8 -31 16 -12 17 -15 4 -23 -8 -6 -20
-8 -27 -5 -7 2 -15 0 -18 -5 -4 -6 283 -10 782 -9 449 0 779 4 768 9 -17 7
-14 9 13 9 20 1 31 -3 27 -9 -4 -7 267 -10 806 -10 738 0 919 3 741 12 -51 2
-62 6 -62 20 0 10 4 17 9 16 5 -2 16 6 24 16 13 18 15 18 33 -13 16 -27 23
-31 46 -25 21 4 28 2 28 -10 0 -13 11 -16 51 -16 31 0 48 4 44 10 -4 6 -10 8
-14 6 -4 -3 -13 -1 -21 4 -12 7 -12 12 -2 22 31 31 4 61 -70 73 -32 5 -38 10
-38 31 0 17 -16 40 -52 74 -29 28 -56 50 -60 50 -4 0 -9 9 -13 19 -3 11 -16
21 -28 23 -15 2 -26 14 -33 38 -9 27 -18 36 -39 38 -21 3 -26 8 -22 23 4 15
-1 23 -19 30 -14 5 -23 13 -20 18 3 4 -8 19 -24 31 -17 13 -30 29 -30 35 0 7
-9 19 -19 26 -15 10 -18 21 -14 41 4 24 8 26 39 21 31 -5 34 -3 34 18 0 17 3
20 9 10 5 -8 16 -11 30 -6 13 4 36 1 53 -6 24 -10 31 -10 38 1 5 8 4 22 -1 32
-8 14 -14 16 -29 8 -23 -12 -67 -13 -74 -1 -4 5 12 12 34 16 22 4 43 12 47 18
4 7 0 8 -11 4 -10 -4 -24 -1 -32 8 -9 8 -24 15 -35 15 -10 0 -19 4 -19 10 0 5
7 7 15 4 11 -5 15 1 15 19 0 25 -23 42 -41 31 -22 -13 -5 16 50 85 183 229
271 508 258 816 -6 158 -42 323 -96 445 -50 115 -153 267 -251 370 -72 76 -99
113 -69 94 8 -5 9 -2 1 11 -5 10 -17 20 -26 21 -9 1 -13 -2 -10 -8 4 -6 1 -8
-7 -6 -8 3 -13 11 -11 17 1 7 -2 10 -7 7 -17 -11 -39 22 -33 50 3 19 1 25 -7
20 -6 -4 -9 -11 -6 -16 3 -5 1 -11 -5 -15 -11 -7 -209 99 -227 123 -7 9 -13
13 -13 9 0 -3 -26 3 -57 14 -73 26 -257 55 -395 64 -101 7 -107 8 -112 31 -4
13 -11 24 -17 24 -6 0 -8 9 -4 23 3 12 3 17 -2 11 -4 -6 -18 -14 -30 -18 -26
-8 -31 -26 -8 -26 7 0 18 -6 22 -14 4 -7 15 -16 23 -19 8 -3 -4 -6 -27 -6 -32
-1 -43 3 -43 14 0 8 -4 15 -10 15 -16 0 -12 27 5 34 16 6 21 36 5 36 -5 0 -14
-9 -20 -21z m312 -238 c108 -16 141 -26 230 -67 56 -27 137 -69 178 -94 84
-51 275 -220 299 -265 9 -16 33 -57 53 -91 48 -77 92 -181 113 -264 9 -36 23
-85 31 -109 11 -32 15 -92 15 -210 1 -157 -1 -171 -29 -257 -16 -49 -34 -99
-40 -110 -6 -10 -28 -55 -48 -99 -69 -147 -149 -251 -185 -242 -11 3 -22 1
-25 -4 -3 -5 -14 -9 -26 -9 -11 0 -36 -8 -55 -17 -28 -13 -39 -14 -55 -4 -10
6 -24 8 -31 4 -21 -14 -80 -32 -123 -39 l-41 -6 -34 57 c-19 31 -41 69 -49 84
-9 14 -28 38 -43 53 -30 31 -34 50 -12 68 11 9 15 10 15 1 0 -8 6 -6 16 4 21
21 20 86 -2 120 -9 14 -43 46 -76 71 -57 44 -58 46 -44 72 24 47 49 62 117 68
150 16 215 76 158 147 -16 22 -18 30 -8 48 6 12 8 34 5 50 -3 15 -1 31 5 35 6
3 9 21 7 39 -3 31 -2 32 27 31 27 -1 30 2 33 34 2 26 -8 57 -38 114 -33 62
-40 86 -36 111 5 24 -1 45 -23 87 -28 52 -29 57 -14 78 21 30 21 99 -1 132
-27 42 -128 94 -286 149 -59 21 -211 36 -254 25 -14 -3 -42 -23 -62 -43 -35
-35 -37 -36 -51 -18 -20 29 -65 30 -99 3 -16 -13 -42 -30 -57 -38 -33 -17 -49
-42 -53 -85 -1 -16 -8 -64 -15 -105 -15 -94 -16 -117 -2 -207 11 -72 20 -91
100 -220 29 -46 45 -87 52 -128 6 -33 13 -76 17 -96 6 -34 4 -37 -26 -47 l-32
-12 7 -62 c6 -59 4 -67 -31 -133 -83 -156 -103 -201 -109 -240 -4 -22 -13 -62
-21 -89 -8 -27 -14 -66 -14 -85 0 -20 -11 -72 -24 -116 l-23 -80 -69 65 c-228
212 -271 273 -344 483 -94 271 -93 490 1 748 67 181 131 282 269 420 191 190
422 289 715 307 11 1 77 -7 147 -17z m-1283 -2380 c8 -5 10 -14 6 -21 -8 -13
14 -32 27 -23 5 2 6 14 2 26 -5 18 -4 20 7 10 7 -7 19 -13 27 -13 7 0 20 -7
29 -16 14 -14 14 -17 -6 -30 -11 -8 -21 -24 -21 -34 0 -27 -20 -36 -27 -12 -5
21 -46 32 -88 24 -18 -3 -25 -12 -27 -33 -2 -22 -6 -26 -17 -19 -12 7 -13 11
-1 25 11 14 10 19 -8 38 l-22 21 37 33 c37 34 57 39 82 24z m2088 -28 c-4 9
-2 17 3 17 6 0 10 -9 10 -20 0 -17 6 -19 52 -17 48 2 52 0 59 -26 4 -16 19
-40 33 -54 26 -26 34 -53 16 -53 -5 0 -10 -13 -10 -30 0 -27 2 -29 24 -20 18
7 26 5 30 -6 4 -11 -5 -14 -44 -14 -46 0 -50 2 -50 24 0 14 -7 31 -15 40 -8 8
-15 24 -15 36 0 12 -7 28 -15 36 -8 8 -12 21 -9 29 5 11 -1 15 -21 15 -20 0
-26 -4 -21 -15 3 -8 2 -15 -3 -15 -12 0 -36 30 -25 30 5 1 -4 8 -19 16 -24 13
-26 18 -16 31 12 13 15 13 27 -4 13 -16 14 -16 9 0z m-2437 -163 c0 -16 5 -30
11 -30 8 0 8 -5 -1 -15 -9 -11 -16 -12 -26 -4 -32 26 -38 -18 -7 -49 17 -17
17 -38 -1 -45 -8 -3 -16 2 -19 14 -6 23 -52 26 -61 4 -3 -10 -19 -15 -46 -15
-22 0 -40 -4 -40 -10 0 -5 -4 -10 -10 -10 -6 0 -6 10 1 27 5 15 9 36 7 47 -4
29 26 68 48 64 10 -2 29 -14 42 -28 l23 -25 -5 28 c-5 20 -3 27 9 27 8 0 22
11 31 25 23 35 44 32 44 -5z"/>
<path d="M4399 444 c-12 -14 -9 -20 19 -44 17 -14 32 -32 32 -38 0 -7 6 -12
14 -12 8 0 12 8 9 23 -4 19 0 22 32 24 20 1 42 6 49 12 7 6 16 8 19 4 9 -8
-24 -32 -44 -33 -18 0 -32 -24 -22 -34 4 -3 14 -6 24 -6 10 0 26 -11 36 -24
11 -13 37 -29 59 -35 51 -14 54 -14 54 4 0 8 -7 15 -15 15 -16 0 -17 4 -17 67
1 39 -2 43 -26 49 -15 3 -35 10 -46 16 -14 7 -21 6 -27 -3 -8 -14 -88 -16 -98
-3 -3 5 -13 15 -22 22 -13 10 -19 9 -30 -4z"/>
<path d="M2565 217 c-6 -23 -51 -57 -75 -57 -20 0 -40 -28 -40 -55 0 -20 -4
-26 -15 -21 -18 7 -19 -4 -3 -39 l11 -25 151 2 c84 0 131 4 106 7 -28 4 -40 9
-32 14 17 11 15 27 -3 27 -23 0 -21 70 3 70 13 1 11 4 -8 15 -22 12 -26 12
-38 -3 -11 -14 -14 -15 -21 -3 -10 16 -4 41 10 41 5 0 9 7 9 15 0 8 -7 15 -15
15 -8 0 -15 5 -15 10 0 20 -20 10 -25 -13z"/>
<path d="M3797 116 c-3 -7 -1 -18 5 -24 16 -16 -1 -36 -19 -21 -12 10 -19 10
-35 0 -17 -10 -22 -10 -29 0 -4 8 -11 10 -14 7 -10 -10 4 -28 21 -28 8 0 14
-4 14 -8 0 -7 -62 -8 -89 -3 -2 1 2 8 9 16 9 11 8 19 -4 37 l-16 22 0 -27 c0
-16 -4 -26 -10 -22 -5 3 -10 1 -10 -4 0 -6 5 -11 10 -11 6 0 10 -3 10 -7 0 -5
-27 -9 -60 -11 -37 -2 -60 1 -60 7 0 6 -11 11 -25 11 -14 0 -25 -4 -25 -9 0
-5 -10 -12 -22 -14 -13 -2 114 -5 282 -5 173 -1 299 2 291 7 -9 6 -10 11 -2
15 15 10 14 29 -1 24 -15 -5 -48 22 -48 39 0 7 -4 13 -10 13 -5 0 -10 -9 -10
-21 0 -13 -8 -23 -20 -26 -14 -4 -19 -11 -15 -23 5 -15 -2 -18 -43 -18 -40 -1
-48 1 -49 18 -1 11 6 22 17 25 17 5 17 7 -4 30 -27 29 -32 30 -39 11z"/>
</g>
</svg>
